<svg width="260" height="73" viewBox="0 0 260 73" fill="none" xmlns="http://www.w3.org/2000/svg">
<path d="M0.925842 57.2549V53.2571H7.82761V19.1781H0.925842V15.1804H19.3025C20.5557 15.1804 21.7713 15.2362 22.9498 15.3482C24.1281 15.46 25.3907 15.6463 26.7373 15.9073C28.084 16.1682 29.2997 16.5595 30.3845 17.0814C31.4882 17.5847 32.4981 18.1996 33.4146 18.9266C34.3124 19.6721 35.0138 20.6132 35.5189 21.7501C36.0425 22.8871 36.3043 24.1637 36.3043 25.5802C36.3043 27.9659 35.6497 29.8948 34.3404 31.3672C33.0312 32.8209 31.1046 33.9112 28.5609 34.6381C31.778 35.4209 34.2469 36.7349 35.9678 38.5799C37.6885 40.4251 38.5488 42.8108 38.5488 45.7368C38.5488 47.2464 38.3151 48.607 37.8475 49.8185C37.3986 51.0112 36.8187 51.999 36.108 52.7818C35.3972 53.5833 34.4901 54.2729 33.3866 54.8506C32.2831 55.4285 31.2076 55.8663 30.1601 56.1646C29.1313 56.4628 27.9157 56.7051 26.5128 56.8915C25.1288 57.0592 23.9411 57.1617 22.9498 57.1989C22.4634 57.2177 21.9304 57.2363 21.3506 57.2549C20.7895 57.2549 20.1816 57.2549 19.527 57.2549H0.925842ZM14.4208 33.1564H20.5088C22.9778 33.1564 25.1661 32.6625 27.074 31.6747C28.0279 31.1902 28.7854 30.5005 29.3465 29.6059C29.9263 28.7113 30.2163 27.6769 30.2163 26.5027C30.2163 25.5709 30.1133 24.7509 29.9076 24.0426C29.7019 23.3158 29.412 22.6914 29.0378 22.1695C28.6825 21.6662 28.1775 21.2376 27.5229 20.8834C26.8869 20.5107 26.2323 20.2125 25.559 19.9888C24.8856 19.7838 24.044 19.6254 23.034 19.5136C22.0239 19.3832 21.0512 19.29 20.1161 19.2341C19.6485 19.2155 19.1248 19.2061 18.545 19.2061C17.9651 19.1874 17.3386 19.1781 16.6653 19.1781H14.4208V33.1564ZM14.4208 53.2571H17.7594C19.0313 53.2571 20.1348 53.2385 21.0701 53.2012C22.0052 53.1639 22.9591 53.0988 23.9318 53.0054C24.8856 52.9123 25.6992 52.7819 26.3726 52.6141C27.0646 52.4277 27.7286 52.2042 28.3646 51.9432C29.0192 51.6823 29.5429 51.3654 29.9356 50.9926C30.3472 50.6013 30.7212 50.1447 31.0579 49.6228C31.3758 49.1009 31.6003 48.5045 31.7312 47.8336C31.8809 47.144 31.9557 46.3704 31.9557 45.5132C31.9557 44.0781 31.6284 42.8013 30.9738 41.6831C30.3378 40.5462 29.4681 39.633 28.3646 38.9433C26.1201 37.5642 23.5016 36.8746 20.5088 36.8746H14.4208V53.2571ZM56.141 58.0097C53.8592 58.0097 51.7736 57.5811 49.8845 56.7237C48.0142 55.8477 46.4711 54.6829 45.2554 53.2292C42.749 50.2098 41.4959 46.678 41.4959 42.6337C41.4959 40.9563 41.6922 39.3255 42.0851 37.7413C42.4778 36.157 43.0764 34.6847 43.8807 33.3241C44.685 31.9635 45.6481 30.7708 46.7704 29.7456C47.8926 28.702 49.2299 27.8913 50.7823 27.3134C52.2974 26.7357 53.9714 26.4469 55.8043 26.4469C59.7135 26.4469 62.9306 27.7514 65.4557 30.3607C66.6901 31.6468 67.6721 33.2775 68.4016 35.2531C69.131 37.2101 69.5144 39.4094 69.5519 41.8509H47.9207V42.0745C47.9207 45.3175 48.6127 48.0479 49.9969 50.2658C50.6888 51.3654 51.6054 52.2321 52.7463 52.8657C53.9059 53.4994 55.2339 53.8163 56.7303 53.8163C58.6754 53.8163 60.4991 53.2105 62.2012 51.999C63.9219 50.7877 65.0816 49.0823 65.68 46.883L68.9626 47.9175C68.2332 50.9926 66.7462 53.4434 64.5017 55.27C62.2572 57.0964 59.4703 58.0097 56.141 58.0097ZM48.1171 38.8316H63.3795C63.3047 36.1291 62.5566 33.9484 61.1351 32.2897C59.7322 30.6123 58.0115 29.7737 55.9727 29.7737C53.9152 29.7737 52.1478 30.6123 50.6701 32.2897C49.1926 33.9484 48.3415 36.1291 48.1171 38.8316ZM79.4567 58.0097C77.1561 58.0097 75.2763 57.404 73.8175 56.1925C72.3773 54.9624 71.6572 53.2758 71.6572 51.1325C71.6572 50.0141 71.9097 48.9984 72.4146 48.0852C72.9197 47.1533 73.5929 46.3797 74.4347 45.7648C76.1741 44.4787 78.1942 43.4071 80.4947 42.5498C82.7392 41.7484 84.7593 40.8257 86.5549 39.7821C87.3778 39.2975 88.0418 38.7105 88.5468 38.0208C89.0519 37.3126 89.3043 36.5298 89.3043 35.6725C89.3043 33.5478 88.7805 31.9728 87.7332 30.9478C86.6857 29.9041 85.2175 29.3822 83.3284 29.3822C82.0004 29.3822 80.7379 29.5966 79.5409 30.0253C78.3438 30.4353 77.4179 31.0038 76.7634 31.7307C77.9604 31.7307 78.9048 32.0567 79.5969 32.7091C80.3077 33.3428 80.6631 34.0976 80.6631 34.9736C80.6631 36.1477 80.2797 37.1076 79.5127 37.8531C78.746 38.5799 77.8295 38.9433 76.7634 38.9433C75.6597 38.9433 74.6966 38.5613 73.8735 37.7971C73.0505 37.0144 72.6391 35.8868 72.6391 34.4145C72.6391 32.793 73.6023 31.1063 75.5289 29.3543C76.464 28.5156 77.7172 27.826 79.2884 27.2855C80.8781 26.7264 82.627 26.4469 84.5348 26.4469C86.0685 26.4469 87.462 26.6146 88.7152 26.95C89.9683 27.2855 91.1092 27.8353 92.138 28.5995C93.1479 29.345 93.9336 30.3887 94.4946 31.7307C95.0557 33.0726 95.3364 34.6567 95.3364 36.4832V49.3433C95.3364 50.0701 95.4204 50.7691 95.5888 51.4399C95.7758 52.0922 96.1312 52.6887 96.6549 53.2292C97.1973 53.7696 97.8614 54.0399 98.6469 54.0399C101.022 54.0399 102.21 52.3812 102.21 49.0636V44.8981H105.268V48.5045C105.268 52.2321 104.501 54.7853 102.968 56.1646C102.219 56.8355 101.406 57.3109 100.527 57.5904C99.6477 57.8699 98.6189 58.0097 97.4405 58.0097C96.1874 58.0097 95.0184 57.7675 93.9336 57.2828C92.8487 56.7983 91.9228 56.0155 91.156 54.9345C90.3517 53.8349 89.8842 52.5302 89.7532 51.0205C88.9489 53.0521 87.5835 54.7295 85.6571 56.0528C83.7492 57.3574 81.6824 58.0097 79.4567 58.0097ZM80.9156 53.9839C82.1501 53.9839 83.4219 53.6205 84.7311 52.8936C86.0592 52.1482 87.1533 51.2162 88.0137 50.098C88.8742 48.9984 89.3043 47.9268 89.3043 46.883V40.9284C88.1073 42.1025 86.7232 43.1554 85.152 44.0874C83.5996 45.0192 82.3278 45.7089 81.3365 46.1562C80.3264 46.6035 79.4567 47.2185 78.7273 48.0014C77.9977 48.784 77.633 49.7346 77.633 50.8528C77.633 51.7848 77.9042 52.5395 78.4466 53.1174C79.0078 53.6951 79.8308 53.9839 80.9156 53.9839ZM105.269 57.2549V54.1238H110.74V30.3887H105.269V27.2576L115.902 26.7823L116.66 33.3241C117.128 31.74 117.979 30.2489 119.213 28.851C119.868 28.1242 120.672 27.5465 121.626 27.1178C122.58 26.6705 123.618 26.4469 124.74 26.4469C126.255 26.4469 127.555 26.8661 128.64 27.7049C129.743 28.5436 130.295 29.727 130.295 31.2553C130.295 32.7091 129.865 33.8366 129.005 34.6381C128.163 35.4395 127.162 35.8403 126.003 35.8403C124.918 35.8403 123.983 35.5048 123.197 34.8337C122.411 34.1628 122.019 33.2589 122.019 32.122C122.019 31.7307 122.112 31.3299 122.299 30.9199C122.486 30.5098 122.673 30.1931 122.86 29.9694L123.169 29.6619C122.047 29.6619 121.055 30.016 120.195 30.7241C119.353 31.4138 118.689 32.3363 118.203 33.4918C117.249 35.8029 116.772 38.3656 116.772 41.1799V54.1238H123.085V57.2549H105.269ZM130.998 57.2549V53.9839H136.413V30.3887H130.942V27.2576H142.445V53.9839H147.943V57.2549H130.998ZM138.966 21.9458C137.825 21.9458 136.843 21.5359 136.02 20.7158C135.215 19.8956 134.813 18.9266 134.813 17.8083C134.813 16.6527 135.215 15.6742 136.02 14.8728C136.843 14.0528 137.825 13.6428 138.966 13.6428C140.088 13.6428 141.06 14.0528 141.883 14.8728C142.725 15.6928 143.146 16.6713 143.146 17.8083C143.146 18.9266 142.725 19.8956 141.883 20.7158C141.06 21.5359 140.088 21.9458 138.966 21.9458ZM148.589 57.2549V54.1238H154.061V30.3887H148.589V27.2576L159.223 26.7823L159.924 32.8769C160.841 30.7894 162.244 29.1958 164.133 28.0963C166.041 26.9967 167.967 26.4469 169.912 26.4469C172.251 26.4469 174.092 26.9407 175.44 27.9285C176.804 28.8977 177.777 30.2024 178.357 31.8424C178.937 33.4825 179.228 35.3091 179.228 37.3219V54.1238H184.978V57.2549H168.061V54.1238H173.194V37.3779C173.194 34.955 172.718 33.1658 171.764 32.0102C170.81 30.8547 169.501 30.2768 167.836 30.2768C165.892 30.2768 164.347 30.836 163.207 31.9542C162.085 33.0538 161.28 34.4238 160.795 36.0638C160.327 37.6853 160.092 39.2882 160.092 40.8724V54.1238H165.199V57.2549H148.589ZM198.614 72.2116C196.932 72.2116 195.286 71.988 193.677 71.5407C192.068 71.0934 190.731 70.3759 189.665 69.3881C188.618 68.4003 188.094 67.1049 188.094 65.502C188.094 64.0669 188.552 62.9767 189.468 62.2312C190.403 61.5043 191.517 61.1408 192.807 61.1408C193.855 61.1408 194.743 61.5043 195.473 62.2312C196.221 62.9767 196.594 63.9178 196.594 65.0547C196.594 65.7816 196.342 66.5084 195.837 67.2354C195.332 67.9809 194.799 68.4561 194.239 68.6612C195.417 69.0712 196.567 69.2761 197.689 69.2761C200.625 69.2761 202.814 68.1579 204.254 65.9214C205.695 63.7035 206.414 60.6003 206.414 56.6119V51.6356C205.815 53.4248 204.712 54.9345 203.103 56.1646C201.496 57.3947 199.671 58.0097 197.633 58.0097C195.613 58.0097 193.836 57.5811 192.302 56.7237C190.787 55.8477 189.524 54.6735 188.514 53.2012C187.505 51.7102 186.737 50.0328 186.215 48.169C185.709 46.3053 185.456 44.3763 185.456 42.3821C185.456 40.3691 185.719 38.4122 186.242 36.5112C186.766 34.6101 187.542 32.9048 188.57 31.3951C189.618 29.8855 190.909 28.6834 192.443 27.7888C193.995 26.8942 195.781 26.4469 197.801 26.4469C198.942 26.4469 200.092 26.6984 201.252 27.2017C202.431 27.7049 203.487 28.4225 204.422 29.3543C205.357 30.2675 206.022 31.3579 206.414 32.6253L207.115 27.2576H216.487V30.5844H212.446V55.8291C212.446 59.072 211.913 61.9236 210.847 64.3838C209.8 66.8439 208.247 68.7637 206.19 70.1428C204.152 71.5219 201.626 72.2116 198.614 72.2116ZM198.84 54.4593C200.654 54.4593 202.131 53.8721 203.273 52.698C204.413 51.5052 205.255 50.0235 205.796 48.2528C206.339 46.4824 206.611 44.7118 206.611 42.9412C206.611 39.1392 205.91 36.0639 204.507 33.7155C203.122 31.3485 201.27 30.165 198.952 30.165C197.642 30.165 196.52 30.5284 195.585 31.2553C194.65 31.9823 193.882 32.9327 193.283 34.1069C192.705 35.2624 192.274 36.5205 191.993 37.881C191.732 39.2416 191.601 40.5648 191.601 41.8509C191.601 43.2486 191.713 44.6837 191.937 46.1562C192.18 47.6285 192.574 48.9984 193.115 50.2658C193.658 51.5145 194.397 52.5302 195.332 53.313C196.267 54.0771 197.436 54.4593 198.84 54.4593ZM230.038 58.0097C228.674 58.0097 227.27 57.8699 225.829 57.5904C224.409 57.3109 223.09 56.8729 221.875 56.2764C220.658 55.6799 219.677 54.9066 218.929 53.956C218.199 52.9868 217.834 51.822 217.834 50.4615C217.834 49.2501 218.218 48.2528 218.985 47.4702C219.752 46.6874 220.65 46.296 221.678 46.296C222.725 46.296 223.614 46.5849 224.343 47.1626C225.091 47.7404 225.466 48.5791 225.466 49.6786C225.466 50.6292 225.184 51.4213 224.624 52.055C224.063 52.6701 223.426 52.9775 222.717 52.9775C223.426 53.4994 224.39 53.9374 225.605 54.2915C226.841 54.627 228.075 54.7946 229.309 54.7946C230.619 54.7946 231.881 54.6549 233.096 54.3754C234.312 54.0771 235.313 53.574 236.099 52.8657C236.884 52.1389 237.277 51.1418 237.277 49.8744C237.277 48.9798 236.996 48.1877 236.435 47.4981C235.893 46.7898 235.172 46.2307 234.274 45.8207C233.377 45.4107 232.348 45.0006 231.189 44.5905C230.048 44.1806 228.879 43.8265 227.682 43.5283C226.111 43.1182 224.587 42.5777 223.109 41.9067C221.649 41.2172 220.443 40.3133 219.489 39.195C218.554 38.0768 218.087 36.6696 218.087 34.9736C218.087 33.0538 218.667 31.4697 219.826 30.221C221.004 28.9537 222.491 28.0124 224.287 27.3973C226.101 26.7637 227.963 26.4469 229.87 26.4469C231.067 26.4469 232.348 26.5866 233.714 26.8661C235.098 27.1271 236.397 27.5372 237.614 28.0963C238.848 28.6554 239.858 29.3636 240.644 30.221C241.429 31.0782 241.822 32.1034 241.822 33.2961C241.822 34.5449 241.457 35.5607 240.728 36.3434C240.017 37.1076 239.176 37.4896 238.203 37.4896C237.137 37.4896 236.229 37.1729 235.481 36.5391C234.733 35.8868 234.359 35.0015 234.359 33.8833C234.359 33.1191 234.546 32.5228 234.921 32.0941C235.313 31.6468 235.837 31.2088 236.491 30.7801C234.639 29.8855 232.545 29.4382 230.206 29.4382C228.28 29.4382 226.653 29.8576 225.325 30.6962C223.996 31.5348 223.333 32.7184 223.333 34.2467C223.333 34.9736 223.604 35.6258 224.147 36.2037C224.708 36.7628 225.447 37.2101 226.364 37.5456C227.262 37.8997 228.28 38.2725 229.421 38.6638C230.581 39.0365 231.769 39.3813 232.984 39.6982C234.2 40.0338 235.379 40.4809 236.52 41.0402C237.679 41.5806 238.717 42.177 239.634 42.8294C240.532 43.4816 241.251 44.339 241.794 45.4014C242.355 46.4636 242.636 47.6658 242.636 49.0078C242.636 50.7784 242.261 52.2507 241.513 53.4248C240.784 54.5804 239.802 55.4936 238.568 56.1646C237.333 56.8355 235.977 57.3109 234.5 57.5904C233.022 57.8699 231.535 58.0097 230.038 58.0097Z" fill="#140703"/>
<path d="M140.591 13.7869C141.686 13.2395 143.172 12.644 144.314 12.2461C144.672 12.121 144.523 12.2626 144.771 12.1803C145.257 12.02 145.686 11.8145 146.17 11.6705C146.331 11.6232 146.179 11.8085 146.346 11.7565C147.272 11.4678 148.122 11.134 149.056 10.8475C153.641 9.44466 158.247 8.3656 163.03 7.63545C164.613 7.39203 166.549 7.23817 168.178 7.01529C168.369 6.989 168.244 6.89644 168.279 6.88386C168.836 6.69101 168.668 6.92298 169.043 6.91348C170.533 6.87616 172.186 6.76115 173.611 6.64507C174.219 6.59588 173.598 6.41748 174.216 6.50473C174.259 6.51066 174.111 6.62988 174.278 6.6339C174.657 6.6423 175.372 6.59407 175.665 6.59371C176.23 6.59314 176.322 6.58959 176.855 6.57842C177.58 6.56478 178.458 6.61046 179.241 6.58589C179.409 6.58033 179.186 6.46511 179.455 6.44609C179.722 6.42664 180.43 6.44244 180.667 6.47346C180.905 6.50399 180.802 6.59282 180.845 6.61412C181.188 6.79321 182.009 6.57063 182.115 6.56823C184.033 6.52025 185.663 6.74592 187.463 6.8813C188.828 6.984 190.284 7.07758 191.571 7.22948C193.094 7.41021 194.407 7.6469 195.893 7.85987C196.05 7.88269 195.886 7.72124 196.079 7.74897C198.127 8.04591 200.104 8.4155 202.119 8.92367C202.319 8.97451 202.034 9.03673 202.233 9.0945C203.452 9.4426 205.325 10.1133 206.167 9.78968C206.986 10.0082 207.973 10.2814 208.694 10.5812C209.155 10.7735 208.658 10.7737 209.257 10.8784C209.392 10.9024 209.251 10.7466 209.451 10.791C210.295 10.9781 211.189 11.2709 212.018 11.456C212.187 11.4934 212.17 11.383 212.223 11.3794C212.66 11.3549 213.24 11.7883 213.377 11.8493C214.409 12.3086 215.22 12.5163 216.232 12.8611C216.468 12.9412 216.234 12.7184 216.461 12.791C217.639 13.1699 218.834 13.6094 219.928 14.0846C220.171 14.1907 219.903 14.2135 220.016 14.2697C220.519 14.5168 220.713 14.3565 221.192 14.5929C221.293 14.6426 221.198 14.7122 221.213 14.7298C221.444 15.0032 221.809 14.8866 221.888 14.9121C222.913 15.2408 223.446 15.7339 224.4 16.0992C224.515 16.1428 224.311 15.9192 224.629 16.0492C226.734 16.9086 228.924 17.9627 230.909 19.0811C231.215 19.2538 230.948 19.2244 230.963 19.2447C231.2 19.5694 231.518 19.4589 231.623 19.5031C232.454 19.8574 233.086 20.4282 233.756 20.4633C237.136 22.4265 240.455 24.3178 243.338 26.763C243.374 26.7934 243.235 26.8396 243.307 26.8999C244.162 27.62 244.129 27.3639 244.886 27.6595C245.079 27.7364 245.38 28.3241 245.407 28.3725C245.51 28.5502 245.243 28.5653 245.283 28.6166C245.625 29.0353 245.933 28.5225 246.483 28.9751C246.499 28.99 246.358 29.0141 246.397 29.0604C246.517 29.2041 246.684 29.2881 246.797 29.4322C247.055 29.7633 246.978 30.0735 247.552 30.3526C247.623 30.3878 247.758 30.0572 248.208 30.4784C248.378 30.6349 249.254 31.432 249.462 31.6652C249.678 31.9015 249.443 31.8278 249.458 31.847C249.973 32.5425 249.698 32.36 249.849 32.806C249.996 33.2503 250.271 32.8147 250.432 32.897C250.593 32.9799 250.933 33.4996 251.003 33.635C251.075 33.7706 250.899 33.6837 250.972 33.7949C251.453 34.5299 251.414 33.9033 251.669 34.0592C252.255 34.4187 252.381 35.128 252.76 35.6362C252.865 35.7767 252.839 35.6129 252.944 35.7276C253.361 36.1833 253.497 36.5399 253.994 37.0161C254.075 37.0932 254.585 37.4013 254.652 37.7819C254.661 37.8357 254.504 37.7753 254.63 37.99C254.82 38.3098 255.221 38.9419 255.467 39.2784C255.653 39.5309 255.593 39.1463 255.761 39.5055C255.833 39.665 255.589 39.4371 255.731 39.7318C255.874 40.025 256.28 40.7278 256.422 40.9946C256.567 41.2607 256.591 41.0606 256.61 41.0785C256.721 41.189 257.031 41.6818 257.051 41.7277C258.271 44.2368 258.753 46.6862 258.806 49.2748C258.809 49.4828 258.933 49.3462 258.934 49.378C258.964 50.0961 258.66 49.5234 258.525 50.0045C258.776 49.9495 258.72 50.2377 258.687 50.7334C258.67 50.9724 258.782 50.856 258.789 50.8789C258.885 51.256 258.651 51.4731 258.602 51.5269C258.418 51.7305 258.528 52.0146 258.395 52.1491C258.266 52.2804 258.22 51.8958 258.104 52.3494C258.156 52.501 258.474 52.2186 258.414 52.5797C258.262 53.9262 256.798 56.2331 256.127 56.9816C255.451 57.825 255.199 58.0999 254.717 58.5571C253.828 59.3519 254.287 59.1385 253.819 59.6687C253.346 60.1823 253.325 59.6378 253.191 59.6331C253.059 59.6253 253.037 59.765 252.911 59.8031C252.785 59.8405 252.95 59.6281 252.716 59.7918C252.489 59.9557 251.946 60.5645 251.91 60.7039C251.841 60.9987 252.279 60.9561 251.562 61.36C251.521 61.3829 251.585 61.205 251.429 61.297C250.169 62.0383 249.133 62.6158 247.83 63.1822C247.655 63.2569 247.753 63.0706 247.651 63.1126C246.572 63.5449 247.034 63.552 246.533 64.0361C246.56 63.6836 246.062 63.7066 245.372 63.9925C244.931 64.1741 245.058 64.2671 244.801 64.4727C244.725 64.5345 244.367 64.5753 244.33 64.657C244.208 64.9254 244.608 65.0252 243.762 65.2423C243.725 65.2513 243.8 65.1029 243.673 65.142C242.851 65.3923 242.827 65.6318 241.916 65.9615C241.2 66.2218 239.812 66.4991 239.101 66.6698C239.025 66.3315 238.327 66.604 238.085 66.9129C237.577 67.0356 237.021 67.1876 236.502 67.2765C236.324 67.3071 236.416 67.1818 236.392 67.1765C236.012 67.0908 235.833 67.3706 235.718 67.4058C234.517 67.7698 233.242 67.8463 232.227 68.2087C232.189 68.222 232.169 68.4714 231.837 68.3526C231.815 68.3441 232.167 68.1692 231.636 68.2562C231.104 68.3434 230.066 68.3883 229.31 68.6179C229.129 68.6736 228.682 68.9398 228.273 68.8448C228.218 68.8318 228.266 68.7551 228.185 68.7279C227.927 68.6413 227.83 68.9015 227.516 68.7365C227.2 68.5711 226.588 68.4997 225.781 68.7448C225.755 68.7522 225.584 68.9685 225.321 68.9972C224.903 69.0433 224.288 69.0737 223.926 69.1149C223.739 69.1361 223.871 69.2422 223.84 69.2479C222.593 69.4514 221.668 69.4352 220.253 69.5105C219.994 69.5241 219.256 69.7489 218.732 69.6584C218.154 69.5588 218.697 68.931 217.399 69.162C216.874 69.2538 216.242 70.0437 215.237 69.7119C213.394 69.9086 211.907 69.771 210.102 69.9617C210.021 69.9701 209.773 70.1859 209.582 70.1882C209.3 70.191 209.141 70.0974 208.938 70.0958C208.088 70.0865 207.299 70.1841 206.456 70.182C206.135 70.1811 206.248 70.0792 205.863 70.0776C205.479 70.0759 205.223 70.2109 204.696 70.1498C204.298 70.1031 203.897 69.8333 203.365 69.8017C203.334 70.0692 203.018 70.0641 202.434 70.1328C202.322 70.1461 202.441 70.2395 202.388 70.2507C202.172 70.2978 201.971 70.2196 201.764 70.2706C201.714 70.2829 201.711 70.3742 201.671 70.3894C201.32 70.5218 200.742 70.3108 200.642 70.2739C200.26 70.1339 200.079 70.2506 199.783 70.193C199.489 70.1355 199.933 70.0746 199.587 70.0374C198.873 69.9603 197.942 69.9578 197.196 69.9365C196.899 69.9286 197.099 70.0552 197.057 70.0569C196.441 70.0736 195.816 69.9269 195.463 70.1598C195.047 69.5193 195.086 70.2106 194.188 70.056C194.118 70.0434 194.038 69.7437 194.312 69.7089C194.585 69.6743 194.994 69.7798 195.371 69.7227C195.46 69.7094 195.974 69.4451 196.043 69.43C196.584 69.3124 196.648 69.7577 196.676 69.7828C196.992 70.0539 197.609 69.7676 197.768 69.75C198.501 69.6701 199.114 69.7429 199.714 69.6835C200.108 69.6449 200.148 69.3545 200.454 69.367C201.467 69.4069 201.816 69.8147 202.755 69.4659C202.962 69.3912 202.735 69.0735 203.492 69.3236C203.544 69.3395 204.142 69.5672 204.484 69.4209C204.527 69.4025 204.524 69.3099 204.581 69.3017C204.96 69.2495 205.212 69.3216 205.621 69.2825C206.031 69.2434 206.518 69.185 206.977 69.2094C207.254 69.2241 207.612 69.3904 207.744 69.4302C208.118 69.5452 208.51 69.3372 208.741 69.4792C208.974 69.6219 208.53 69.8575 209.135 69.9388C209.151 69.6976 209.195 69.4494 209.225 69.2067C210.535 69.1822 211.799 69.2165 213.056 69.1508C213.211 69.1424 213.046 69.0203 213.213 69.0078C213.924 68.9552 214.484 69.0201 215.332 68.9363C215.957 68.8723 216.626 68.6939 217.261 68.6168C217.67 68.8657 218.601 68.7057 219.27 68.6772C219.505 68.6673 219.496 68.7417 219.663 68.7522C220.295 68.789 219.982 68.5706 220.148 68.5182C220.861 68.2926 220.973 68.8361 221.814 68.7426C221.86 68.7379 222.372 68.3926 222.444 68.3667C222.9 68.2005 222.533 68.4606 222.827 68.4522C223.366 68.436 223.741 68.4664 224.347 68.3106C224.551 68.2618 225.019 68.0228 225.427 68.1148C225.482 68.1268 225.465 68.2267 225.506 68.2272C226.268 68.2276 226.246 67.9217 226.652 67.7638C227.059 67.606 227.726 67.7246 227.862 67.7658C228.223 67.8725 227.613 67.8695 227.596 67.8871C227.405 68.0991 227.869 68.0023 228.223 67.9658C228.317 68.2544 228.806 68.1632 228.589 67.9266C228.564 67.9008 228.296 67.9691 228.223 67.9658C228.49 67.6303 229.018 67.5132 229.643 67.6907C229.935 67.7734 229.706 67.9642 230.515 67.774C230.88 67.6871 230.703 67.5085 231.016 67.3974C231.755 67.1389 232.611 67.1761 233.514 66.9633C233.816 66.8911 233.499 66.8405 233.703 66.7874C234.243 66.6456 234.734 66.627 235.254 66.4664C235.301 66.4517 235.159 66.3628 235.323 66.3244C236.56 66.0309 237.616 65.8461 238.802 65.521C239.092 65.4413 239.467 65.3186 239.872 65.1835C240.325 65.0348 240.769 64.8835 241.093 64.7864C242.225 64.4512 243.578 64.1455 244.411 63.7676C244.954 63.522 244.785 63.4607 244.986 63.2912C245.331 62.9838 246.351 62.8349 246.483 62.819C246.489 62.8189 245.98 63.0795 246.282 63.0091C246.496 63.0506 246.477 62.822 246.483 62.819C246.578 62.8104 247.589 62.3538 247.763 62.2346C247.86 62.1707 247.751 62.1009 247.803 62.0695C249.047 61.3118 250.077 60.6775 251.374 59.811C251.396 59.7977 251.439 59.9216 251.489 59.889C252.204 59.434 252.507 58.9847 252.927 58.4951C253.326 58.0188 253.733 57.6562 254.174 57.5002C254.516 57.1013 255.05 56.6063 255.339 56.3119C255.629 56.0173 255.455 55.8308 255.472 55.8C255.928 54.8584 256.416 54.2757 256.853 53.2348C257.068 52.7376 257.327 51.6901 257.387 51.0982C257.443 50.6355 257.531 50.3613 257.525 49.9264C257.524 49.8677 257.411 49.9196 257.409 49.9016C257.304 49.4181 257.557 49.6585 257.608 49.5604C257.791 49.1989 257.89 48.9646 257.772 48.3493C257.746 48.204 257.33 47.8252 257.274 47.5753C257.2 47.246 257.354 47.3525 257.265 47.0042C257.256 46.9743 257.176 46.995 257.139 46.7769C256.956 45.7238 256.703 44.7206 256.285 43.6976C256.229 43.5596 256.176 43.7863 256.091 43.589C255.681 42.6306 255.212 41.703 254.771 40.8235C254.664 40.6068 254.82 40.6901 254.817 40.6307C254.799 40.2643 254.339 39.9929 254.294 39.9312C253.152 38.3843 252.588 37.2893 251.222 35.8667C251.146 35.7873 250.416 35.3627 250.36 34.9748C250.356 34.948 250.295 34.5438 249.971 34.434C249.951 34.4275 250.012 34.6621 249.765 34.3867C249.517 34.111 249.038 33.7387 248.754 33.2801C248.663 33.1355 248.54 32.6945 248.044 32.4819C248.014 32.4688 247.152 32.2376 247.144 31.8471C247.142 31.7841 247.381 31.5886 246.849 31.3252C246.747 31.2754 246.851 31.4569 246.606 31.2985C246.231 31.0566 245.834 30.6103 245.319 30.3591C245.229 30.3151 244.781 30.2116 244.618 29.8813C244.592 29.8295 244.733 29.8136 244.603 29.6938C243.989 29.1315 243.189 28.6013 242.586 28.0689C242.365 27.8746 242.583 27.8328 242.36 27.6154C242.138 27.398 241.653 26.9979 241.342 26.8701C241.03 26.7424 241.174 27.1601 240.759 26.8961C238.934 25.7369 237.232 24.4758 235.403 23.3758C235.129 23.2119 235.311 23.4252 234.902 23.1903C233.367 22.2963 230.749 21.0049 229.475 20.1624C228.458 19.4848 229.882 20.051 229.077 19.5838C228.687 19.3587 228.115 19.4201 228.013 19.3821C226.997 19.0066 226.421 18.5962 225.548 18.2506C225.368 18.1799 225.49 18.3686 225.338 18.3073C224.817 18.0994 224.295 17.8134 223.794 17.6108C223.568 17.5204 223.573 17.6239 223.369 17.5304C222.882 17.3079 222.458 17.0905 222.003 16.8117C221.961 16.7864 222.306 16.8001 221.937 16.6461C221.335 16.3963 220.621 16.0226 219.911 15.8485C219.7 15.7966 219.617 15.9931 219.233 15.6914C219.151 15.6285 219.36 15.4311 218.771 15.4499C218.671 15.4519 217.711 15.4193 217.35 15.0879C217.255 15.0003 217.038 14.701 216.777 14.6453C216.741 14.6386 216.839 14.7939 216.629 14.7328C215.888 14.5153 215.122 14.2453 214.351 14.033C214.145 13.9767 214.408 14.1867 214.106 14.1004C213.286 13.8673 212.275 13.5229 211.479 13.2487C211.186 13.1473 211.419 13.1138 211.4 13.0971C211.101 12.8272 210.828 12.9929 210.708 12.9725C209.964 12.8431 209.441 12.5826 208.76 12.4284C208.573 12.3857 208.675 12.5294 208.635 12.5291C208.227 12.5203 208.565 12.4026 208.328 12.3162C207.66 12.0731 206.901 11.8875 206.217 11.7337C205.965 11.6772 206.216 11.8727 205.99 11.8207C204.653 11.5158 203.26 11.1875 201.95 10.8421C201.704 10.7769 201.881 10.7115 201.833 10.6784C201.507 10.4472 200.935 10.5554 200.81 10.552C200.24 10.5364 200.041 10.4084 199.558 10.3347C197.193 9.97189 194.246 9.46623 191.989 9.1678C189.067 8.77983 186.758 8.49814 183.938 8.39107C183.758 8.38456 183.932 8.5255 183.778 8.5217C181.786 8.46746 179.819 8.38405 177.813 8.44871C177.648 8.45388 177.887 8.5767 177.623 8.58943C177.083 8.61644 176.404 8.62561 175.858 8.60326C175.59 8.59261 175.944 8.47254 175.675 8.46418C175.05 8.44477 174.381 8.46481 173.742 8.51929C173.47 8.54289 173.888 8.6494 173.533 8.67024C171.12 8.81762 168.764 9.05583 166.327 9.20591C166.159 9.21633 165.978 8.97534 165.631 9.07389C165.614 9.14968 165.629 9.23429 165.627 9.31296C162.141 9.83943 158.726 10.417 155.299 11.2953C155.154 11.3325 155.438 11.4017 155.16 11.4744C153.549 11.8964 152.025 12.3838 150.363 12.7813C150.2 12.8213 150.204 12.561 149.743 12.754C149.661 12.7876 148.958 13.061 148.793 13.1761C148.772 13.1924 148.938 13.2548 148.711 13.3379C147.383 13.8214 146.012 14.3145 144.694 14.7814C144.48 14.8566 144.656 14.6528 144.504 14.7056C143.422 15.0813 142.319 15.6669 141.277 16.0303C140.578 16.2748 140.735 15.9698 140.29 15.952C140.227 15.9494 139.811 16.145 139.737 16.0476C139.548 15.8027 139.604 15.4068 139.38 15.1572C139.332 15.1026 138.803 15.445 139.061 15.1314C139.079 15.1096 139.463 14.8613 139.539 14.762C139.592 14.6928 139.412 14.6433 139.534 14.5291C139.656 14.415 139.858 14.4322 140.071 14.2666C140.284 14.1007 140.119 14.0228 140.591 13.7869ZM256.567 54.8912C256.86 54.5929 256.504 54.3474 256.394 54.768C256.39 54.7884 256.551 54.9065 256.567 54.8912ZM211.795 69.5359C212.318 69.7052 212.656 69.4131 212.289 69.2819C211.923 69.1508 211.636 69.4845 211.795 69.5359ZM206.278 69.8083C206.921 69.949 207.012 69.3405 206.329 69.4722C206.289 69.4796 206.24 69.8001 206.278 69.8083ZM141.92 15.1307C141.913 15.1275 141.61 15.2584 141.606 15.267C141.503 15.4628 142.106 15.2015 141.92 15.1307ZM200.783 69.9629C200.97 70.047 201.509 69.9566 201.277 69.8525C201.092 69.769 200.55 69.8584 200.783 69.9629ZM252.611 35.7835C252.611 35.7744 252.46 35.5869 252.436 35.6138C252.358 35.7012 252.598 35.9353 252.611 35.7835ZM191.38 69.7234C192.825 69.8053 193.671 70.3363 192.11 70.2209C191.825 70.1996 192.728 70.0848 192.368 70.0257C191.71 69.9178 191.255 70.2142 190.579 70.0158C190.456 69.9797 191.298 69.7178 191.383 69.7228C191.382 69.723 191.382 69.7232 191.38 69.7234ZM257.131 54.9281C257.141 54.9237 257.298 54.6308 257.295 54.6211C257.253 54.4028 256.945 54.9864 257.131 54.9281ZM242.571 26.3501C242.566 26.3296 241.958 25.8833 241.929 25.8786C241.481 25.8329 242.708 26.7325 242.571 26.3501ZM239.087 66.6643C238.795 66.8867 238.4 67.0091 238.087 66.9126C238.424 66.8344 238.756 66.7466 239.087 66.6643Z" fill="#140703"/>
</svg>
