<svg xmlns="http://www.w3.org/2000/svg" viewBox="0 0 100 100"><defs><radialGradient id="g" cx="36%" cy="30%" r="72%"><stop offset="0" stop-color="#ffffff"/><stop offset=".62" stop-color="#f2f2f2"/><stop offset="1" stop-color="#c2c2c2"/></radialGradient><radialGradient id="sh" cx="36%" cy="30%" r="75%"><stop offset=".55" stop-color="#000" stop-opacity="0"/><stop offset="1" stop-color="#000" stop-opacity=".28"/></radialGradient><clipPath id="c"><circle cx="50" cy="50" r="49"/></clipPath></defs><circle cx="50" cy="50" r="49" fill="url(#g)"/><g clip-path="url(#c)" fill="#161616"><polygon points="50.0,35.0 64.3,45.4 58.8,62.1 41.2,62.1 35.7,45.4"/><polygon points="65.9,28.2 61.1,13.6 73.5,4.6 85.9,13.6 81.2,28.2"/><polygon points="75.7,58.3 88.0,49.4 100.4,58.3 95.7,72.9 80.4,72.9"/><polygon points="50.0,77.0 62.4,86.0 57.6,100.5 42.4,100.5 37.6,86.0"/><polygon points="24.3,58.3 19.6,72.9 4.3,72.9 -0.4,58.3 12.0,49.4"/><polygon points="34.1,28.2 18.8,28.2 14.1,13.6 26.5,4.6 38.9,13.6"/></g><g clip-path="url(#c)" stroke="#cccccc" stroke-width="1.3" fill="none"><line x1="50.0" y1="35.0" x2="50.0" y2="6.5"/><line x1="64.3" y1="45.4" x2="91.4" y2="36.6"/><line x1="58.8" y1="62.1" x2="75.6" y2="85.2"/><line x1="41.2" y1="62.1" x2="24.4" y2="85.2"/><line x1="35.7" y1="45.4" x2="8.6" y2="36.6"/></g><circle cx="50" cy="50" r="49" fill="url(#sh)"/></svg>