<svg xmlns="http://www.w3.org/2000/svg" viewBox="0 0 100 100"><defs><radialGradient id="body" cx="38%" cy="30%" r="78%"><stop offset="0" stop-color="#ffffff"/><stop offset="0.45" stop-color="#f4f4f4"/><stop offset="0.72" stop-color="#dcdcdc"/><stop offset="0.9" stop-color="#b6b6b6"/><stop offset="1" stop-color="#8f8f8f"/></radialGradient><radialGradient id="ao" cx="50%" cy="50%" r="50%"><stop offset="0.82" stop-color="#000" stop-opacity="0"/><stop offset="1" stop-color="#000" stop-opacity="0.32"/></radialGradient><radialGradient id="gloss" cx="34%" cy="26%" r="26%"><stop offset="0" stop-color="#ffffff" stop-opacity="0.92"/><stop offset="0.6" stop-color="#ffffff" stop-opacity="0.28"/><stop offset="1" stop-color="#ffffff" stop-opacity="0"/></radialGradient><linearGradient id="blk" x1="0" y1="0" x2="0.5" y2="1"><stop offset="0" stop-color="#2b2b2b"/><stop offset="0.5" stop-color="#141414"/><stop offset="1" stop-color="#040404"/></linearGradient><clipPath id="c"><circle cx="50" cy="50" r="48"/></clipPath></defs><circle cx="50" cy="50" r="48" fill="url(#body)"/><g clip-path="url(#c)" fill="url(#blk)"><polygon points="50.00,34.50 64.74,45.21 59.11,62.54 40.89,62.54 35.26,45.21"/><polygon points="65.87,28.16 61.15,13.62 73.51,4.64 85.88,13.62 81.15,28.16"/><polygon points="75.68,58.34 88.04,49.36 100.41,58.34 95.68,72.88 80.40,72.88"/><polygon points="50.00,77.00 62.36,85.98 57.64,100.52 42.36,100.52 37.64,85.98"/><polygon points="24.32,58.34 19.60,72.88 4.32,72.88 -0.41,58.34 11.96,49.36"/><polygon points="34.13,28.16 18.85,28.16 14.12,13.62 26.49,4.64 38.85,13.62"/></g><g clip-path="url(#c)" stroke="#b9b9b9" stroke-width="1.1" fill="none" stroke-linecap="round"><line x1="50.00" y1="34.50" x2="50.00" y2="5.82"/><line x1="64.74" y1="45.21" x2="92.01" y2="36.35"/><line x1="59.11" y1="62.54" x2="75.97" y2="85.74"/><line x1="40.89" y1="62.54" x2="24.03" y2="85.74"/><line x1="35.26" y1="45.21" x2="7.99" y2="36.35"/></g><circle cx="50" cy="50" r="48" fill="url(#ao)"/><ellipse cx="37" cy="27" rx="20" ry="15" fill="url(#gloss)"/><circle cx="50" cy="50" r="48" fill="none" stroke="#7a7a7a" stroke-width="0.6" stroke-opacity="0.5"/></svg>