<svg xmlns="http://www.w3.org/2000/svg" viewBox="0 0 100 100"><defs><clipPath id="c"><circle cx="50" cy="50" r="48"/></clipPath></defs><circle cx="50" cy="50" r="48" fill="#f0f0f0"/><g clip-path="url(#c)" fill="#171717"><polygon points="50.00,34.50 64.74,45.21 59.11,62.54 40.89,62.54 35.26,45.21"/><polygon points="65.87,28.16 61.15,13.62 73.51,4.64 85.88,13.62 81.15,28.16"/><polygon points="75.68,58.34 88.04,49.36 100.41,58.34 95.68,72.88 80.40,72.88"/><polygon points="50.00,77.00 62.36,85.98 57.64,100.52 42.36,100.52 37.64,85.98"/><polygon points="24.32,58.34 19.60,72.88 4.32,72.88 -0.41,58.34 11.96,49.36"/><polygon points="34.13,28.16 18.85,28.16 14.12,13.62 26.49,4.64 38.85,13.62"/></g><g clip-path="url(#c)" stroke="#c2c2c2" stroke-width="1.1" fill="none" stroke-linecap="round"><line x1="50.00" y1="34.50" x2="50.00" y2="5.82"/><line x1="64.74" y1="45.21" x2="92.01" y2="36.35"/><line x1="59.11" y1="62.54" x2="75.97" y2="85.74"/><line x1="40.89" y1="62.54" x2="24.03" y2="85.74"/><line x1="35.26" y1="45.21" x2="7.99" y2="36.35"/></g></svg>
